<svg width="80" height="14" viewBox="0 0 80 14" fill="none"
  xmlns="http://www.w3.org/2000/svg">
  <path d="M23.0974 10.2471H21.7303V4.43844H23.0974V5.20858C23.462 4.64729 24.0609 4.29485 24.8681 4.29485C26.2873 4.29485 27.1076 5.23469 27.1076 6.74887V10.2471H25.7405V7.00993C25.7405 6.10926 25.2978 5.56102 24.4515 5.56102C23.6312 5.56102 23.0974 6.18758 23.0974 7.17963V10.2471ZM28.1101 7.74092V4.43844H29.4772V7.6626C29.4772 8.57632 29.9199 9.12456 30.6881 9.12456C31.4562 9.12456 31.8989 8.57632 31.8989 7.6626V4.43844H33.253V7.74092C33.253 9.41173 32.2895 10.3777 30.675 10.3777C29.0736 10.3907 28.1101 9.41173 28.1101 7.74092ZM33.6696 4.43844H35.1279L36.6772 8.4719L38.2396 4.43844H39.6588L37.2762 10.2471H36.0653L33.6696 4.43844ZM45.1793 8.87655C44.6975 9.79028 43.7992 10.3777 42.5623 10.3777C40.8046 10.3777 39.5547 9.12456 39.5547 7.33626C39.5547 5.60018 40.8306 4.29485 42.4972 4.29485C44.1898 4.29485 45.3746 5.60018 45.3746 7.33626C45.3746 7.44069 45.3746 7.58428 45.3616 7.75397H40.9087C40.9738 8.58938 41.716 9.22899 42.5753 9.22899C43.3305 9.22899 43.721 8.8635 44.0465 8.35442L45.1793 8.87655ZM44.0205 6.76192C43.9294 5.99178 43.3174 5.41743 42.4711 5.41743C41.6509 5.41743 41.0129 6.0962 40.9218 6.76192H44.0205ZM47.4838 10.2471H46.1167V4.43844H47.4838V5.20858C47.8093 4.64729 48.3431 4.29485 49.1374 4.29485C49.9706 4.29485 50.5826 4.6995 50.8951 5.37827C51.2075 4.81698 51.8585 4.29485 52.822 4.29485C54.1631 4.29485 54.9312 5.22164 54.9312 6.67055V10.2341H53.5641V6.94467C53.5641 6.0962 53.1735 5.56102 52.4574 5.56102C51.7153 5.56102 51.2336 6.16147 51.2206 7.11436V10.2471H49.8535V6.98383C49.8535 6.08315 49.4629 5.54797 48.7468 5.54797C47.9916 5.54797 47.5099 6.16147 47.5099 7.15352V10.2471H47.4838ZM56.5848 8.32831C56.7801 8.8635 57.2228 9.21593 57.7436 9.21593C58.1732 9.21593 58.5248 9.02014 58.5248 8.61549C58.5248 8.28915 58.3295 8.13251 57.8607 7.98893L57.1577 7.76702C56.1812 7.45374 55.6864 6.89245 55.6864 6.08315C55.6864 4.99973 56.5978 4.30791 57.6785 4.30791C58.6289 4.30791 59.4101 4.81698 59.7877 5.62629L58.694 6.21368C58.4727 5.75682 58.1211 5.44354 57.6915 5.44354C57.3009 5.44354 56.9884 5.63934 56.9884 5.97872C56.9884 6.25284 57.1967 6.4617 57.6394 6.60528L58.3295 6.82719C59.4101 7.19268 59.8528 7.75397 59.8528 8.52411C59.8528 9.71196 58.8633 10.3907 57.7305 10.3907C56.6499 10.3907 55.8166 9.81639 55.4911 8.91571L56.5848 8.32831ZM61.9099 10.2471H60.5428V2.2716H61.9099V5.20858C62.2745 4.64729 62.8734 4.29485 63.6807 4.29485C65.0998 4.29485 65.9201 5.23469 65.9201 6.74887V10.2471H64.553V7.00993C64.553 6.10926 64.1103 5.56102 63.264 5.56102C62.4438 5.56102 61.9099 6.18758 61.9099 7.17963V10.2471ZM72.8077 7.33626C72.8077 9.04624 71.4926 10.3777 69.7219 10.3777C67.9512 10.3777 66.6362 9.03319 66.6362 7.33626C66.6362 5.62629 67.9512 4.29485 69.7219 4.29485C71.5057 4.29485 72.8077 5.63934 72.8077 7.33626ZM68.0033 7.33626C68.0033 8.32831 68.7584 9.12456 69.7219 9.12456C70.6854 9.12456 71.4406 8.32831 71.4406 7.33626C71.4406 6.34422 70.6854 5.54797 69.7219 5.54797C68.7584 5.54797 68.0033 6.34422 68.0033 7.33626ZM74.956 4.43844V5.27385C75.3856 4.6734 76.1147 4.30791 76.922 4.30791C78.5234 4.30791 79.7473 5.61323 79.7473 7.34932C79.7473 9.0593 78.5234 10.3907 76.922 10.3907C76.1147 10.3907 75.3856 10.0644 74.956 9.45089V12.414H73.6019V4.43844H74.956ZM76.6355 5.54797C75.659 5.54797 74.9039 6.35727 74.9039 7.34932C74.9039 8.34137 75.659 9.15067 76.6355 9.15067C77.612 9.15067 78.3672 8.34137 78.3672 7.34932C78.3672 6.35727 77.625 5.54797 76.6355 5.54797ZM11.5748 0.0917015C11.5617 0.0917015 11.5617 0.0917015 11.5748 0.0917015C9.85612 0.0917015 8.24164 0.757418 7.03078 1.94527C6.41884 1.6842 5.74181 1.54061 5.05175 1.54061C2.26547 1.54061 0 3.82494 0 6.61833C0 9.41173 2.26547 11.6961 5.06477 11.6961C5.74181 11.6961 6.41884 11.5525 7.03078 11.2914C8.20258 12.4401 9.80404 13.145 11.5617 13.145C15.1552 13.145 18.0717 10.221 18.0717 6.61833C18.0717 3.02869 15.1552 0.0917015 11.5748 0.0917015ZM11.5617 11.6961C8.77546 11.6961 6.49696 9.41173 6.49696 6.61833H5.05175C5.05175 7.89755 5.41631 9.09846 6.05428 10.1036C5.72879 10.1949 5.39027 10.2471 5.05175 10.2471C3.05969 10.2471 1.4322 8.61548 1.4322 6.61833C1.4322 4.62118 3.05969 2.98953 5.05175 2.98953C5.84597 2.98953 6.5881 3.23754 7.22608 3.72051C8.1505 4.41233 8.6713 5.46965 8.6713 6.61833H10.1165C10.1165 5.10416 9.46552 3.6944 8.30674 2.72846C9.21814 1.97137 10.3639 1.54061 11.5617 1.54061C14.348 1.54061 16.6265 3.82494 16.6265 6.61833C16.6265 9.41173 14.361 11.6961 11.5617 11.6961Z" fill="#2C3357"/>
</svg>
